<svg width="136" height="38" viewBox="0 0 136 38" fill="none" xmlns="http://www.w3.org/2000/svg">
<g id="Folder-State-Default">
<g id="logo">
<g id="P">
<mask id="path-1-outside-1_54_488" maskUnits="userSpaceOnUse" x="1" y="9" width="16" height="19" fill="black">
<rect fill="white" x="1" y="9" width="16" height="19"/>
<path d="M2.13111 27V9.58279H9.97149C11.8307 9.58279 13.2953 10.0914 14.3653 11.1088C15.4352 12.1085 15.9702 13.4679 15.9702 15.1868C15.9702 16.9057 15.4352 18.2739 14.3653 19.2912C13.2953 20.291 11.8307 20.7908 9.97149 20.7908H4.10436V27H2.13111ZM4.10436 18.9491H9.83994C11.2081 18.9491 12.2429 18.6159 12.9445 17.9494C13.6461 17.2828 13.9969 16.362 13.9969 15.1868C13.9969 14.0292 13.6461 13.1171 12.9445 12.4506C12.2429 11.7841 11.2081 11.4508 9.83994 11.4508H4.10436V18.9491Z"/>
</mask>
<path d="M2.13111 27V9.58279H9.97149C11.8307 9.58279 13.2953 10.0914 14.3653 11.1088C15.4352 12.1085 15.9702 13.4679 15.9702 15.1868C15.9702 16.9057 15.4352 18.2739 14.3653 19.2912C13.2953 20.291 11.8307 20.7908 9.97149 20.7908H4.10436V27H2.13111ZM4.10436 18.9491H9.83994C11.2081 18.9491 12.2429 18.6159 12.9445 17.9494C13.6461 17.2828 13.9969 16.362 13.9969 15.1868C13.9969 14.0292 13.6461 13.1171 12.9445 12.4506C12.2429 11.7841 11.2081 11.4508 9.83994 11.4508H4.10436V18.9491Z" fill="white"/>
<path d="M2.13111 27H1.87244V27.2587H2.13111V27ZM2.13111 9.58279V9.32412H1.87244V9.58279H2.13111ZM14.3653 11.1088L14.187 11.2962L14.1887 11.2978L14.3653 11.1088ZM14.3653 19.2912L14.5419 19.4802L14.5435 19.4786L14.3653 19.2912ZM4.10436 20.7908V20.5322H3.84569V20.7908H4.10436ZM4.10436 27V27.2587H4.36303V27H4.10436ZM4.10436 18.9491H3.84569V19.2078H4.10436V18.9491ZM12.9445 17.9494L13.1227 18.1369V18.1369L12.9445 17.9494ZM12.9445 12.4506L12.7664 12.6381L12.9445 12.4506ZM4.10436 11.4508V11.1921H3.84569V11.4508H4.10436ZM2.13111 27H2.38978V9.58279H2.13111H1.87244V27H2.13111ZM2.13111 9.58279V9.84145H9.97149V9.58279V9.32412H2.13111V9.58279ZM9.97149 9.58279V9.84145C11.7824 9.84145 13.1768 10.3357 14.187 11.2962L14.3653 11.1088L14.5435 10.9213C13.4138 9.84722 11.8791 9.32412 9.97149 9.32412V9.58279ZM14.3653 11.1088L14.1887 11.2978C15.1971 12.2401 15.7115 13.526 15.7115 15.1868H15.9702H16.2288C16.2288 13.4098 15.6733 11.977 14.5419 10.9198L14.3653 11.1088ZM15.9702 15.1868H15.7115C15.7115 16.8475 15.1971 18.1433 14.187 19.1037L14.3653 19.2912L14.5435 19.4786C15.6733 18.4044 16.2288 16.9639 16.2288 15.1868H15.9702ZM14.3653 19.2912L14.1887 19.1022C13.1786 20.046 11.7835 20.5322 9.97149 20.5322V20.7908V21.0495C11.8779 21.0495 13.4121 20.5359 14.5419 19.4802L14.3653 19.2912ZM9.97149 20.7908V20.5322H4.10436V20.7908V21.0495H9.97149V20.7908ZM4.10436 20.7908H3.84569V27H4.10436H4.36303V20.7908H4.10436ZM4.10436 27V26.7413H2.13111V27V27.2587H4.10436V27ZM4.10436 18.9491V19.2078H9.83994V18.9491V18.6905H4.10436V18.9491ZM9.83994 18.9491V19.2078C11.2468 19.2078 12.3562 18.8651 13.1227 18.1369L12.9445 17.9494L12.7664 17.7618C12.1296 18.3667 11.1693 18.6905 9.83994 18.6905V18.9491ZM12.9445 17.9494L13.1227 18.1369C13.8864 17.4113 14.2556 16.4166 14.2556 15.1868H13.9969H13.7382C13.7382 16.3074 13.4058 17.1544 12.7664 17.7618L12.9445 17.9494ZM13.9969 15.1868H14.2556C14.2556 13.9733 13.8856 12.9879 13.1227 12.263L12.9445 12.4506L12.7664 12.6381C13.4066 13.2463 13.7382 14.085 13.7382 15.1868H13.9969ZM12.9445 12.4506L13.1227 12.263C12.3562 11.5349 11.2468 11.1921 9.83994 11.1921V11.4508V11.7095C11.1693 11.7095 12.1296 12.0332 12.7664 12.6381L12.9445 12.4506ZM9.83994 11.4508V11.1921H4.10436V11.4508V11.7095H9.83994V11.4508ZM4.10436 11.4508H3.84569V18.9491H4.10436H4.36303V11.4508H4.10436Z" fill="white" mask="url(#path-1-outside-1_54_488)"/>
</g>
<g id="RFOLIO">
<mask id="path-3-outside-2_54_488" maskUnits="userSpaceOnUse" x="36.8223" y="9.29443" width="91" height="19" fill="black">
<rect fill="white" x="36.8223" y="9.29443" width="91" height="19"/>
<path d="M37.9534 27.2944V9.87722H46.2936C48.0827 9.87722 49.5035 10.3683 50.5559 11.3506C51.6258 12.3328 52.1608 13.6571 52.1608 15.3234C52.1608 16.4459 51.9415 17.3405 51.503 18.007C51.0821 18.6735 50.5471 19.1822 49.8981 19.533C49.2491 19.8662 48.6002 20.1118 47.9512 20.2697L52.5291 27.2944H50.1875L45.9779 20.6117H39.9266V27.2944H37.9534ZM39.9266 18.7437H45.9516C46.5831 18.7437 47.2233 18.6472 47.8722 18.4543C48.5212 18.2613 49.065 17.9193 49.5035 17.4282C49.9595 16.9195 50.1875 16.2179 50.1875 15.3234C50.1875 14.2184 49.8104 13.3501 49.0562 12.7187C48.302 12.0697 47.3022 11.7452 46.0569 11.7452H39.9266V18.7437ZM55.5533 27.2944V9.87722H68.1295V11.7715H57.5266V17.8228H66.9719V19.7435H57.5266V27.2944H55.5533ZM78.6274 27.5049C77.3119 27.5049 76.1104 27.2769 75.0229 26.8209C73.9354 26.3648 72.997 25.7246 72.2077 24.9002C71.436 24.0758 70.8396 23.1287 70.4187 22.0587C69.9977 20.9713 69.7872 19.8136 69.7872 18.5858C69.7872 17.3405 69.9977 16.1828 70.4187 15.1129C70.8396 14.043 71.436 13.0958 72.2077 12.2714C72.997 11.447 73.9354 10.8068 75.0229 10.3508C76.1104 9.89476 77.3119 9.66674 78.6274 9.66674C79.9429 9.66674 81.1444 9.89476 82.2319 10.3508C83.3193 10.8068 84.249 11.447 85.0207 12.2714C85.81 13.0958 86.4151 14.043 86.8361 15.1129C87.2571 16.1828 87.4675 17.3405 87.4675 18.5858C87.4675 19.8136 87.2571 20.9713 86.8361 22.0587C86.4151 23.1287 85.81 24.0758 85.0207 24.9002C84.249 25.7246 83.3193 26.3648 82.2319 26.8209C81.1444 27.2769 79.9429 27.5049 78.6274 27.5049ZM78.6274 25.5843C80.0481 25.5843 81.2672 25.2773 82.2845 24.6634C83.3193 24.032 84.1086 23.1901 84.6524 22.1377C85.2137 21.0677 85.4943 19.8838 85.4943 18.5858C85.4943 17.2703 85.2137 16.0864 84.6524 15.034C84.1086 13.9816 83.3193 13.1484 82.2845 12.5345C81.2672 11.9031 80.0481 11.5874 78.6274 11.5874C77.2242 11.5874 76.0052 11.9031 74.9703 12.5345C73.9354 13.1484 73.1374 13.9816 72.5761 15.034C72.0323 16.0864 71.7605 17.2703 71.7605 18.5858C71.7605 19.8838 72.0323 21.0677 72.5761 22.1377C73.1374 23.1901 73.9354 24.032 74.9703 24.6634C76.0052 25.2773 77.2242 25.5843 78.6274 25.5843ZM90.6247 27.2944V9.87722H92.598V25.4001H102.096V27.2944H90.6247ZM104.653 27.2944V9.87722H106.627V27.2944H104.653ZM118.632 27.5049C117.316 27.5049 116.115 27.2769 115.027 26.8209C113.94 26.3648 113.002 25.7246 112.212 24.9002C111.441 24.0758 110.844 23.1287 110.423 22.0587C110.002 20.9713 109.792 19.8136 109.792 18.5858C109.792 17.3405 110.002 16.1828 110.423 15.1129C110.844 14.043 111.441 13.0958 112.212 12.2714C113.002 11.447 113.94 10.8068 115.027 10.3508C116.115 9.89476 117.316 9.66674 118.632 9.66674C119.947 9.66674 121.149 9.89476 122.236 10.3508C123.324 10.8068 124.253 11.447 125.025 12.2714C125.815 13.0958 126.42 14.043 126.841 15.1129C127.262 16.1828 127.472 17.3405 127.472 18.5858C127.472 19.8136 127.262 20.9713 126.841 22.0587C126.42 23.1287 125.815 24.0758 125.025 24.9002C124.253 25.7246 123.324 26.3648 122.236 26.8209C121.149 27.2769 119.947 27.5049 118.632 27.5049ZM118.632 25.5843C120.053 25.5843 121.272 25.2773 122.289 24.6634C123.324 24.032 124.113 23.1901 124.657 22.1377C125.218 21.0677 125.499 19.8838 125.499 18.5858C125.499 17.2703 125.218 16.0864 124.657 15.034C124.113 13.9816 123.324 13.1484 122.289 12.5345C121.272 11.9031 120.053 11.5874 118.632 11.5874C117.229 11.5874 116.01 11.9031 114.975 12.5345C113.94 13.1484 113.142 13.9816 112.581 15.034C112.037 16.0864 111.765 17.2703 111.765 18.5858C111.765 19.8838 112.037 21.0677 112.581 22.1377C113.142 23.1901 113.94 24.032 114.975 24.6634C116.01 25.2773 117.229 25.5843 118.632 25.5843Z"/>
</mask>
<path d="M37.9534 27.2944V9.87722H46.2936C48.0827 9.87722 49.5035 10.3683 50.5559 11.3506C51.6258 12.3328 52.1608 13.6571 52.1608 15.3234C52.1608 16.4459 51.9415 17.3405 51.503 18.007C51.0821 18.6735 50.5471 19.1822 49.8981 19.533C49.2491 19.8662 48.6002 20.1118 47.9512 20.2697L52.5291 27.2944H50.1875L45.9779 20.6117H39.9266V27.2944H37.9534ZM39.9266 18.7437H45.9516C46.5831 18.7437 47.2233 18.6472 47.8722 18.4543C48.5212 18.2613 49.065 17.9193 49.5035 17.4282C49.9595 16.9195 50.1875 16.2179 50.1875 15.3234C50.1875 14.2184 49.8104 13.3501 49.0562 12.7187C48.302 12.0697 47.3022 11.7452 46.0569 11.7452H39.9266V18.7437ZM55.5533 27.2944V9.87722H68.1295V11.7715H57.5266V17.8228H66.9719V19.7435H57.5266V27.2944H55.5533ZM78.6274 27.5049C77.3119 27.5049 76.1104 27.2769 75.0229 26.8209C73.9354 26.3648 72.997 25.7246 72.2077 24.9002C71.436 24.0758 70.8396 23.1287 70.4187 22.0587C69.9977 20.9713 69.7872 19.8136 69.7872 18.5858C69.7872 17.3405 69.9977 16.1828 70.4187 15.1129C70.8396 14.043 71.436 13.0958 72.2077 12.2714C72.997 11.447 73.9354 10.8068 75.0229 10.3508C76.1104 9.89476 77.3119 9.66674 78.6274 9.66674C79.9429 9.66674 81.1444 9.89476 82.2319 10.3508C83.3193 10.8068 84.249 11.447 85.0207 12.2714C85.81 13.0958 86.4151 14.043 86.8361 15.1129C87.2571 16.1828 87.4675 17.3405 87.4675 18.5858C87.4675 19.8136 87.2571 20.9713 86.8361 22.0587C86.4151 23.1287 85.81 24.0758 85.0207 24.9002C84.249 25.7246 83.3193 26.3648 82.2319 26.8209C81.1444 27.2769 79.9429 27.5049 78.6274 27.5049ZM78.6274 25.5843C80.0481 25.5843 81.2672 25.2773 82.2845 24.6634C83.3193 24.032 84.1086 23.1901 84.6524 22.1377C85.2137 21.0677 85.4943 19.8838 85.4943 18.5858C85.4943 17.2703 85.2137 16.0864 84.6524 15.034C84.1086 13.9816 83.3193 13.1484 82.2845 12.5345C81.2672 11.9031 80.0481 11.5874 78.6274 11.5874C77.2242 11.5874 76.0052 11.9031 74.9703 12.5345C73.9354 13.1484 73.1374 13.9816 72.5761 15.034C72.0323 16.0864 71.7605 17.2703 71.7605 18.5858C71.7605 19.8838 72.0323 21.0677 72.5761 22.1377C73.1374 23.1901 73.9354 24.032 74.9703 24.6634C76.0052 25.2773 77.2242 25.5843 78.6274 25.5843ZM90.6247 27.2944V9.87722H92.598V25.4001H102.096V27.2944H90.6247ZM104.653 27.2944V9.87722H106.627V27.2944H104.653ZM118.632 27.5049C117.316 27.5049 116.115 27.2769 115.027 26.8209C113.94 26.3648 113.002 25.7246 112.212 24.9002C111.441 24.0758 110.844 23.1287 110.423 22.0587C110.002 20.9713 109.792 19.8136 109.792 18.5858C109.792 17.3405 110.002 16.1828 110.423 15.1129C110.844 14.043 111.441 13.0958 112.212 12.2714C113.002 11.447 113.94 10.8068 115.027 10.3508C116.115 9.89476 117.316 9.66674 118.632 9.66674C119.947 9.66674 121.149 9.89476 122.236 10.3508C123.324 10.8068 124.253 11.447 125.025 12.2714C125.815 13.0958 126.42 14.043 126.841 15.1129C127.262 16.1828 127.472 17.3405 127.472 18.5858C127.472 19.8136 127.262 20.9713 126.841 22.0587C126.42 23.1287 125.815 24.0758 125.025 24.9002C124.253 25.7246 123.324 26.3648 122.236 26.8209C121.149 27.2769 119.947 27.5049 118.632 27.5049ZM118.632 25.5843C120.053 25.5843 121.272 25.2773 122.289 24.6634C123.324 24.032 124.113 23.1901 124.657 22.1377C125.218 21.0677 125.499 19.8838 125.499 18.5858C125.499 17.2703 125.218 16.0864 124.657 15.034C124.113 13.9816 123.324 13.1484 122.289 12.5345C121.272 11.9031 120.053 11.5874 118.632 11.5874C117.229 11.5874 116.01 11.9031 114.975 12.5345C113.94 13.1484 113.142 13.9816 112.581 15.034C112.037 16.0864 111.765 17.2703 111.765 18.5858C111.765 19.8838 112.037 21.0677 112.581 22.1377C113.142 23.1901 113.94 24.032 114.975 24.6634C116.01 25.2773 117.229 25.5843 118.632 25.5843Z" fill="white"/>
<path d="M37.9534 27.2944H37.6947V27.5531H37.9534V27.2944ZM37.9534 9.87722V9.61855H37.6947V9.87722H37.9534ZM50.5559 11.3506L50.3794 11.5397L50.3809 11.5411L50.5559 11.3506ZM51.503 18.007L51.2869 17.8648L51.2843 17.8689L51.503 18.007ZM49.8981 19.533L50.0163 19.7631L50.0211 19.7605L49.8981 19.533ZM47.9512 20.2697L47.89 20.0183L47.5349 20.1047L47.7345 20.4109L47.9512 20.2697ZM52.5291 27.2944V27.5531H53.0064L52.7458 27.1532L52.5291 27.2944ZM50.1875 27.2944L49.9687 27.4323L50.0448 27.5531H50.1875V27.2944ZM45.9779 20.6117L46.1968 20.4738L46.1207 20.353H45.9779V20.6117ZM39.9266 20.6117V20.353H39.668V20.6117H39.9266ZM39.9266 27.2944V27.5531H40.1853V27.2944H39.9266ZM39.9266 18.7437H39.668V19.0024H39.9266V18.7437ZM47.8722 18.4543L47.7985 18.2063V18.2063L47.8722 18.4543ZM49.5035 17.4282L49.3109 17.2555L49.3105 17.2559L49.5035 17.4282ZM49.0562 12.7187L48.8875 12.9148L48.8901 12.917L49.0562 12.7187ZM39.9266 11.7452V11.4866H39.668V11.7452H39.9266ZM37.9534 27.2944H38.212V9.87722H37.9534H37.6947V27.2944H37.9534ZM37.9534 9.87722V10.1359H46.2936V9.87722V9.61855H37.9534V9.87722ZM46.2936 9.87722V10.1359C48.0339 10.1359 49.3858 10.6123 50.3794 11.5397L50.5559 11.3506L50.7324 11.1615C49.6211 10.1243 48.1316 9.61855 46.2936 9.61855V9.87722ZM50.5559 11.3506L50.3809 11.5411C51.3894 12.467 51.9021 13.7178 51.9021 15.3234H52.1608H52.4194C52.4194 13.5964 51.8622 12.1987 50.7308 11.16L50.5559 11.3506ZM52.1608 15.3234H51.9021C51.9021 16.4152 51.6885 17.2545 51.2869 17.8648L51.503 18.007L51.7191 18.1492C52.1945 17.4265 52.4194 16.4767 52.4194 15.3234H52.1608ZM51.503 18.007L51.2843 17.8689C50.8854 18.5005 50.3824 18.9772 49.7751 19.3054L49.8981 19.533L50.0211 19.7605C50.7118 19.3872 51.2787 18.8465 51.7217 18.1451L51.503 18.007ZM49.8981 19.533L49.7799 19.3029C49.1474 19.6277 48.5175 19.8657 47.89 20.0183L47.9512 20.2697L48.0123 20.521C48.6828 20.3579 49.3508 20.1048 50.0163 19.7631L49.8981 19.533ZM47.9512 20.2697L47.7345 20.4109L52.3124 27.4357L52.5291 27.2944L52.7458 27.1532L48.1679 20.1284L47.9512 20.2697ZM52.5291 27.2944V27.0358H50.1875V27.2944V27.5531H52.5291V27.2944ZM50.1875 27.2944L50.4064 27.1566L46.1968 20.4738L45.9779 20.6117L45.7591 20.7496L49.9687 27.4323L50.1875 27.2944ZM45.9779 20.6117V20.353H39.9266V20.6117V20.8704H45.9779V20.6117ZM39.9266 20.6117H39.668V27.2944H39.9266H40.1853V20.6117H39.9266ZM39.9266 27.2944V27.0358H37.9534V27.2944V27.5531H39.9266V27.2944ZM39.9266 18.7437V19.0024H45.9516V18.7437V18.485H39.9266V18.7437ZM45.9516 18.7437V19.0024C46.6097 19.0024 47.2748 18.9018 47.946 18.7022L47.8722 18.4543L47.7985 18.2063C47.1717 18.3927 46.5564 18.485 45.9516 18.485V18.7437ZM47.8722 18.4543L47.946 18.7022C48.6396 18.496 49.225 18.1284 49.6964 17.6005L49.5035 17.4282L49.3105 17.2559C48.9049 17.7102 48.4029 18.0267 47.7985 18.2063L47.8722 18.4543ZM49.5035 17.4282L49.6961 17.6009C50.2064 17.0316 50.4462 16.2615 50.4462 15.3234H50.1875H49.9289C49.9289 16.1744 49.7126 16.8074 49.3109 17.2555L49.5035 17.4282ZM50.1875 15.3234H50.4462C50.4462 14.1524 50.0428 13.2074 49.2222 12.5204L49.0562 12.7187L48.8901 12.917C49.578 13.4929 49.9289 14.2843 49.9289 15.3234H50.1875ZM49.0562 12.7187L49.2249 12.5226C48.4128 11.8239 47.348 11.4866 46.0569 11.4866V11.7452V12.0039C47.2564 12.0039 48.1911 12.3156 48.8875 12.9148L49.0562 12.7187ZM46.0569 11.7452V11.4866H39.9266V11.7452V12.0039H46.0569V11.7452ZM39.9266 11.7452H39.668V18.7437H39.9266H40.1853V11.7452H39.9266ZM55.5533 27.2944H55.2947V27.5531H55.5533V27.2944ZM55.5533 9.87722V9.61855H55.2947V9.87722H55.5533ZM68.1295 9.87722H68.3882V9.61855H68.1295V9.87722ZM68.1295 11.7715V12.0302H68.3882V11.7715H68.1295ZM57.5266 11.7715V11.5129H57.2679V11.7715H57.5266ZM57.5266 17.8228H57.2679V18.0815H57.5266V17.8228ZM66.9719 17.8228H67.2305V17.5642H66.9719V17.8228ZM66.9719 19.7435V20.0021H67.2305V19.7435H66.9719ZM57.5266 19.7435V19.4848H57.2679V19.7435H57.5266ZM57.5266 27.2944V27.5531H57.7852V27.2944H57.5266ZM55.5533 27.2944H55.812V9.87722H55.5533H55.2947V27.2944H55.5533ZM55.5533 9.87722V10.1359H68.1295V9.87722V9.61855H55.5533V9.87722ZM68.1295 9.87722H67.8708V11.7715H68.1295H68.3882V9.87722H68.1295ZM68.1295 11.7715V11.5129H57.5266V11.7715V12.0302H68.1295V11.7715ZM57.5266 11.7715H57.2679V17.8228H57.5266H57.7852V11.7715H57.5266ZM57.5266 17.8228V18.0815H66.9719V17.8228V17.5642H57.5266V17.8228ZM66.9719 17.8228H66.7132V19.7435H66.9719H67.2305V17.8228H66.9719ZM66.9719 19.7435V19.4848H57.5266V19.7435V20.0021H66.9719V19.7435ZM57.5266 19.7435H57.2679V27.2944H57.5266H57.7852V19.7435H57.5266ZM57.5266 27.2944V27.0358H55.5533V27.2944V27.5531H57.5266V27.2944ZM75.0229 26.8209L74.9229 27.0594V27.0594L75.0229 26.8209ZM72.2077 24.9002L72.0189 25.077L72.0209 25.0791L72.2077 24.9002ZM70.4187 22.0587L70.1774 22.1521L70.178 22.1535L70.4187 22.0587ZM70.4187 15.1129L70.178 15.0182V15.0182L70.4187 15.1129ZM72.2077 12.2714L72.0209 12.0925L72.0189 12.0946L72.2077 12.2714ZM75.0229 10.3508L74.9229 10.1123V10.1123L75.0229 10.3508ZM82.2319 10.3508L82.3319 10.1123V10.1123L82.2319 10.3508ZM85.0207 12.2714L84.8319 12.4482L84.8339 12.4503L85.0207 12.2714ZM86.8361 22.0587L87.0768 22.1535L87.0773 22.1521L86.8361 22.0587ZM85.0207 24.9002L84.8339 24.7213L84.8319 24.7234L85.0207 24.9002ZM82.2319 26.8209L82.3319 27.0594V27.0594L82.2319 26.8209ZM82.2845 24.6634L82.4181 24.8849L82.4192 24.8842L82.2845 24.6634ZM84.6524 22.1377L84.4233 22.0175L84.4226 22.0189L84.6524 22.1377ZM84.6524 15.034L84.4225 15.1527L84.4241 15.1557L84.6524 15.034ZM82.2845 12.5345L82.148 12.7543L82.1525 12.757L82.2845 12.5345ZM74.9703 12.5345L75.1023 12.757L75.105 12.7553L74.9703 12.5345ZM72.5761 15.034L72.3478 14.9122L72.3463 14.9152L72.5761 15.034ZM72.5761 22.1377L72.3454 22.2549L72.3479 22.2594L72.5761 22.1377ZM74.9703 24.6634L74.8356 24.8843L74.8383 24.8859L74.9703 24.6634ZM78.6274 27.5049V27.2462C77.3423 27.2462 76.1753 27.0236 75.1229 26.5823L75.0229 26.8209L74.9229 27.0594C76.0455 27.5302 77.2815 27.7636 78.6274 27.7636V27.5049ZM75.0229 26.8209L75.1229 26.5823C74.0671 26.1395 73.1585 25.5192 72.3946 24.7213L72.2077 24.9002L72.0209 25.0791C72.8356 25.93 73.8038 26.5901 74.9229 27.0594L75.0229 26.8209ZM72.2077 24.9002L72.3966 24.7234C71.6475 23.9233 71.0686 23.0042 70.6594 21.964L70.4187 22.0587L70.178 22.1535C70.6107 23.2532 71.2244 24.2283 72.0189 25.077L72.2077 24.9002ZM70.4187 22.0587L70.6599 21.9654C70.2511 20.9092 70.0459 19.7834 70.0459 18.5858H69.7872H69.5286C69.5286 19.8439 69.7444 21.0333 70.1774 22.1521L70.4187 22.0587ZM69.7872 18.5858H70.0459C70.0459 17.3702 70.2512 16.245 70.6594 15.2076L70.4187 15.1129L70.178 15.0182C69.7442 16.1207 69.5286 17.3108 69.5286 18.5858H69.7872ZM70.4187 15.1129L70.6594 15.2076C71.0686 14.1675 71.6475 13.2483 72.3966 12.4482L72.2077 12.2714L72.0189 12.0946C71.2244 12.9433 70.6107 13.9184 70.178 15.0182L70.4187 15.1129ZM72.2077 12.2714L72.3946 12.4503C73.1585 11.6524 74.0671 11.0321 75.123 10.5893L75.0229 10.3508L74.9229 10.1123C73.8038 10.5816 72.8356 11.2417 72.0209 12.0925L72.2077 12.2714ZM75.0229 10.3508L75.1229 10.5893C76.1753 10.148 77.3423 9.92541 78.6274 9.92541V9.66674V9.40807C77.2815 9.40807 76.0455 9.64148 74.9229 10.1123L75.0229 10.3508ZM78.6274 9.66674V9.92541C79.9125 9.92541 81.0795 10.148 82.1318 10.5893L82.2319 10.3508L82.3319 10.1123C81.2093 9.64148 79.9733 9.40807 78.6274 9.40807V9.66674ZM82.2319 10.3508L82.1318 10.5893C83.1872 11.0319 84.0861 11.6516 84.8319 12.4482L85.0207 12.2714L85.2095 12.0946C84.4118 11.2425 83.4515 10.5818 82.3319 10.1123L82.2319 10.3508ZM85.0207 12.2714L84.8339 12.4503C85.5997 13.2502 86.1867 14.1687 86.5954 15.2076L86.8361 15.1129L87.0768 15.0182C86.6436 13.9172 86.0203 12.9414 85.2076 12.0925L85.0207 12.2714ZM86.8361 15.1129L86.5954 15.2076C87.0035 16.245 87.2089 17.3702 87.2089 18.5858H87.4675H87.7262C87.7262 17.3108 87.5106 16.1207 87.0768 15.0182L86.8361 15.1129ZM87.4675 18.5858H87.2089C87.2089 19.7834 87.0037 20.9092 86.5949 21.9654L86.8361 22.0587L87.0773 22.1521C87.5104 21.0333 87.7262 19.8439 87.7262 18.5858H87.4675ZM86.8361 22.0587L86.5954 21.964C86.1867 23.0029 85.5997 23.9214 84.8339 24.7213L85.0207 24.9002L85.2076 25.0791C86.0203 24.2303 86.6436 23.2544 87.0768 22.1535L86.8361 22.0587ZM85.0207 24.9002L84.8319 24.7234C84.0861 25.52 83.1872 26.1397 82.1318 26.5823L82.2319 26.8209L82.3319 27.0594C83.4515 26.5899 84.4118 25.9292 85.2095 25.077L85.0207 24.9002ZM82.2319 26.8209L82.1318 26.5823C81.0795 27.0236 79.9125 27.2462 78.6274 27.2462V27.5049V27.7636C79.9733 27.7636 81.2093 27.5302 82.3319 27.0594L82.2319 26.8209ZM78.6274 25.5843V25.843C80.086 25.843 81.3532 25.5275 82.4181 24.8849L82.2845 24.6634L82.1508 24.442C81.1811 25.0271 80.0103 25.3256 78.6274 25.3256V25.5843ZM82.2845 24.6634L82.4192 24.8842C83.4935 24.2287 84.3162 23.3519 84.8822 22.2564L84.6524 22.1377L84.4226 22.0189C83.9011 23.0282 83.1452 23.8353 82.1497 24.4426L82.2845 24.6634ZM84.6524 22.1377L84.8814 22.2578C85.4636 21.1481 85.753 19.9225 85.753 18.5858H85.4943H85.2356C85.2356 19.8451 84.9637 20.9874 84.4233 22.0175L84.6524 22.1377ZM85.4943 18.5858H85.753C85.753 17.2323 85.4639 16.0059 84.8806 14.9123L84.6524 15.034L84.4241 15.1557C84.9634 16.1669 85.2356 17.3083 85.2356 18.5858H85.4943ZM84.6524 15.034L84.8822 14.9152C84.3158 13.8191 83.4923 12.9503 82.4164 12.3121L82.2845 12.5345L82.1525 12.757C83.1464 13.3466 83.9014 14.1441 84.4226 15.1527L84.6524 15.034ZM82.2845 12.5345L82.4209 12.3148C81.3555 11.6535 80.0872 11.3287 78.6274 11.3287V11.5874V11.846C80.009 11.846 81.1788 12.1527 82.1481 12.7543L82.2845 12.5345ZM78.6274 11.5874V11.3287C77.1843 11.3287 75.917 11.6538 74.8356 12.3137L74.9703 12.5345L75.105 12.7553C76.0933 12.1523 77.2641 11.846 78.6274 11.846V11.5874ZM74.9703 12.5345L74.8383 12.3121C73.7631 12.9499 72.9316 13.8177 72.3479 14.9123L72.5761 15.034L72.8043 15.1557C73.3431 14.1454 74.1077 13.347 75.1023 12.757L74.9703 12.5345ZM72.5761 15.034L72.3463 14.9152C71.7816 16.0083 71.5018 17.2337 71.5018 18.5858H71.7605H72.0191C72.0191 17.307 72.2831 16.1645 72.8059 15.1527L72.5761 15.034ZM71.7605 18.5858H71.5018C71.5018 19.9211 71.7818 21.1457 72.3455 22.2549L72.5761 22.1377L72.8067 22.0205C72.2829 20.9898 72.0191 19.8464 72.0191 18.5858H71.7605ZM72.5761 22.1377L72.3479 22.2594C72.9313 23.3533 73.7619 24.2291 74.8356 24.8842L74.9703 24.6634L75.105 24.4426C74.1089 23.8349 73.3435 23.0269 72.8043 22.0159L72.5761 22.1377ZM74.9703 24.6634L74.8383 24.8859C75.9193 25.5272 77.1856 25.843 78.6274 25.843V25.5843V25.3256C77.2628 25.3256 76.091 25.0275 75.1023 24.441L74.9703 24.6634ZM90.6247 27.2944H90.3661V27.5531H90.6247V27.2944ZM90.6247 9.87722V9.61855H90.3661V9.87722H90.6247ZM92.598 9.87722H92.8567V9.61855H92.598V9.87722ZM92.598 25.4001H92.3393V25.6588H92.598V25.4001ZM102.096 25.4001H102.355V25.1414H102.096V25.4001ZM102.096 27.2944V27.5531H102.355V27.2944H102.096ZM90.6247 27.2944H90.8834V9.87722H90.6247H90.3661V27.2944H90.6247ZM90.6247 9.87722V10.1359H92.598V9.87722V9.61855H90.6247V9.87722ZM92.598 9.87722H92.3393V25.4001H92.598H92.8567V9.87722H92.598ZM92.598 25.4001V25.6588H102.096V25.4001V25.1414H92.598V25.4001ZM102.096 25.4001H101.837V27.2944H102.096H102.355V25.4001H102.096ZM102.096 27.2944V27.0358H90.6247V27.2944V27.5531H102.096V27.2944ZM104.653 27.2944H104.395V27.5531H104.653V27.2944ZM104.653 9.87722V9.61855H104.395V9.87722H104.653ZM106.627 9.87722H106.885V9.61855H106.627V9.87722ZM106.627 27.2944V27.5531H106.885V27.2944H106.627ZM104.653 27.2944H104.912V9.87722H104.653H104.395V27.2944H104.653ZM104.653 9.87722V10.1359H106.627V9.87722V9.61855H104.653V9.87722ZM106.627 9.87722H106.368V27.2944H106.627H106.885V9.87722H106.627ZM106.627 27.2944V27.0358H104.653V27.2944V27.5531H106.627V27.2944ZM115.027 26.8209L114.927 27.0594V27.0594L115.027 26.8209ZM112.212 24.9002L112.023 25.077L112.025 25.0791L112.212 24.9002ZM110.423 22.0587L110.182 22.1521L110.183 22.1535L110.423 22.0587ZM110.423 15.1129L110.183 15.0182V15.0182L110.423 15.1129ZM112.212 12.2714L112.025 12.0925L112.023 12.0946L112.212 12.2714ZM115.027 10.3508L114.927 10.1123V10.1123L115.027 10.3508ZM122.236 10.3508L122.336 10.1123V10.1123L122.236 10.3508ZM125.025 12.2714L124.836 12.4482L124.838 12.4503L125.025 12.2714ZM126.841 22.0587L127.081 22.1535L127.082 22.1521L126.841 22.0587ZM125.025 24.9002L124.838 24.7213L124.836 24.7234L125.025 24.9002ZM122.236 26.8209L122.336 27.0594V27.0594L122.236 26.8209ZM122.289 24.6634L122.423 24.8849L122.424 24.8842L122.289 24.6634ZM124.657 22.1377L124.428 22.0175L124.427 22.0189L124.657 22.1377ZM124.657 15.034L124.427 15.1527L124.429 15.1557L124.657 15.034ZM122.289 12.5345L122.153 12.7543L122.157 12.757L122.289 12.5345ZM114.975 12.5345L115.107 12.757L115.11 12.7553L114.975 12.5345ZM112.581 15.034L112.352 14.9122L112.351 14.9152L112.581 15.034ZM112.581 22.1377L112.35 22.2549L112.352 22.2594L112.581 22.1377ZM114.975 24.6634L114.84 24.8843L114.843 24.8859L114.975 24.6634ZM118.632 27.5049V27.2462C117.347 27.2462 116.18 27.0236 115.127 26.5823L115.027 26.8209L114.927 27.0594C116.05 27.5302 117.286 27.7636 118.632 27.7636V27.5049ZM115.027 26.8209L115.127 26.5823C114.072 26.1395 113.163 25.5192 112.399 24.7213L112.212 24.9002L112.025 25.0791C112.84 25.93 113.808 26.5901 114.927 27.0594L115.027 26.8209ZM112.212 24.9002L112.401 24.7234C111.652 23.9233 111.073 23.0042 110.664 21.964L110.423 22.0587L110.183 22.1535C110.615 23.2532 111.229 24.2283 112.023 25.077L112.212 24.9002ZM110.423 22.0587L110.664 21.9654C110.256 20.9092 110.05 19.7834 110.05 18.5858H109.792H109.533C109.533 19.8439 109.749 21.0333 110.182 22.1521L110.423 22.0587ZM109.792 18.5858H110.05C110.05 17.3702 110.256 16.245 110.664 15.2076L110.423 15.1129L110.183 15.0182C109.749 16.1207 109.533 17.3108 109.533 18.5858H109.792ZM110.423 15.1129L110.664 15.2076C111.073 14.1675 111.652 13.2483 112.401 12.4482L112.212 12.2714L112.023 12.0946C111.229 12.9433 110.615 13.9184 110.183 15.0182L110.423 15.1129ZM112.212 12.2714L112.399 12.4503C113.163 11.6524 114.072 11.0321 115.127 10.5893L115.027 10.3508L114.927 10.1123C113.808 10.5816 112.84 11.2417 112.025 12.0925L112.212 12.2714ZM115.027 10.3508L115.127 10.5893C116.18 10.148 117.347 9.92541 118.632 9.92541V9.66674V9.40807C117.286 9.40807 116.05 9.64148 114.927 10.1123L115.027 10.3508ZM118.632 9.66674V9.92541C119.917 9.92541 121.084 10.148 122.136 10.5893L122.236 10.3508L122.336 10.1123C121.214 9.64148 119.978 9.40807 118.632 9.40807V9.66674ZM122.236 10.3508L122.136 10.5893C123.192 11.0319 124.091 11.6516 124.836 12.4482L125.025 12.2714L125.214 12.0946C124.416 11.2425 123.456 10.5818 122.336 10.1123L122.236 10.3508ZM125.025 12.2714L124.838 12.4503C125.604 13.2502 126.191 14.1687 126.6 15.2076L126.841 15.1129L127.081 15.0182C126.648 13.9172 126.025 12.9414 125.212 12.0925L125.025 12.2714ZM126.841 15.1129L126.6 15.2076C127.008 16.245 127.213 17.3702 127.213 18.5858H127.472H127.731C127.731 17.3108 127.515 16.1207 127.081 15.0182L126.841 15.1129ZM127.472 18.5858H127.213C127.213 19.7834 127.008 20.9092 126.599 21.9654L126.841 22.0587L127.082 22.1521C127.515 21.0333 127.731 19.8439 127.731 18.5858H127.472ZM126.841 22.0587L126.6 21.964C126.191 23.0029 125.604 23.9214 124.838 24.7213L125.025 24.9002L125.212 25.0791C126.025 24.2303 126.648 23.2544 127.081 22.1535L126.841 22.0587ZM125.025 24.9002L124.836 24.7234C124.091 25.52 123.192 26.1397 122.136 26.5823L122.236 26.8209L122.336 27.0594C123.456 26.5899 124.416 25.9292 125.214 25.077L125.025 24.9002ZM122.236 26.8209L122.136 26.5823C121.084 27.0236 119.917 27.2462 118.632 27.2462V27.5049V27.7636C119.978 27.7636 121.214 27.5302 122.336 27.0594L122.236 26.8209ZM118.632 25.5843V25.843C120.09 25.843 121.358 25.5275 122.423 24.8849L122.289 24.6634L122.155 24.442C121.186 25.0271 120.015 25.3256 118.632 25.3256V25.5843ZM122.289 24.6634L122.424 24.8842C123.498 24.2287 124.321 23.3519 124.887 22.2564L124.657 22.1377L124.427 22.0189C123.906 23.0282 123.15 23.8353 122.154 24.4426L122.289 24.6634ZM124.657 22.1377L124.886 22.2578C125.468 21.1481 125.757 19.9225 125.757 18.5858H125.499H125.24C125.24 19.8451 124.968 20.9874 124.428 22.0175L124.657 22.1377ZM125.499 18.5858H125.757C125.757 17.2323 125.468 16.0059 124.885 14.9123L124.657 15.034L124.429 15.1557C124.968 16.1669 125.24 17.3083 125.24 18.5858H125.499ZM124.657 15.034L124.887 14.9152C124.32 13.8191 123.497 12.9503 122.421 12.3121L122.289 12.5345L122.157 12.757C123.151 13.3466 123.906 14.1441 124.427 15.1527L124.657 15.034ZM122.289 12.5345L122.425 12.3148C121.36 11.6535 120.092 11.3287 118.632 11.3287V11.5874V11.846C120.014 11.846 121.183 12.1527 122.153 12.7543L122.289 12.5345ZM118.632 11.5874V11.3287C117.189 11.3287 115.922 11.6538 114.84 12.3137L114.975 12.5345L115.11 12.7553C116.098 12.1523 117.269 11.846 118.632 11.846V11.5874ZM114.975 12.5345L114.843 12.3121C113.768 12.9499 112.936 13.8177 112.352 14.9123L112.581 15.034L112.809 15.1557C113.348 14.1454 114.112 13.347 115.107 12.757L114.975 12.5345ZM112.581 15.034L112.351 14.9152C111.786 16.0083 111.506 17.2337 111.506 18.5858H111.765H112.024C112.024 17.307 112.288 16.1645 112.81 15.1527L112.581 15.034ZM111.765 18.5858H111.506C111.506 19.9211 111.786 21.1457 112.35 22.2549L112.581 22.1377L112.811 22.0205C112.287 20.9898 112.024 19.8464 112.024 18.5858H111.765ZM112.581 22.1377L112.352 22.2594C112.936 23.3533 113.766 24.2291 114.84 24.8842L114.975 24.6634L115.11 24.4426C114.113 23.8349 113.348 23.0269 112.809 22.0159L112.581 22.1377ZM114.975 24.6634L114.843 24.8859C115.924 25.5272 117.19 25.843 118.632 25.843V25.5843V25.3256C117.267 25.3256 116.096 25.0275 115.107 24.441L114.975 24.6634Z" fill="white" mask="url(#path-3-outside-2_54_488)"/>
</g>
<g id="O">
<mask id="path-5-outside-3_54_488" maskUnits="userSpaceOnUse" x="16.5684" y="9.25146" width="19" height="19" fill="black">
<rect fill="white" x="16.5684" y="9.25146" width="19" height="19"/>
<path d="M26.4346 27.4619C25.1191 27.4619 23.9176 27.2339 22.8301 26.7779C21.7427 26.3218 20.8043 25.6816 20.015 24.8573C19.2432 24.0329 18.6468 23.0857 18.2259 22.0158C17.8049 20.9283 17.5944 19.7707 17.5944 18.5429C17.5944 17.2975 17.8049 16.1399 18.2259 15.0699C18.6468 14 19.2432 13.0528 20.015 12.2285C20.8043 11.4041 21.7427 10.7639 22.8301 10.3078C23.9176 9.85179 25.1191 9.62377 26.4346 9.62377C27.7501 9.62377 28.9516 9.85179 30.0391 10.3078C31.1266 10.7639 32.0562 11.4041 32.8279 12.2285C33.6172 13.0528 34.2224 14 34.6433 15.0699C35.0643 16.1399 35.2748 17.2975 35.2748 18.5429C35.2748 19.7707 35.0643 20.9283 34.6433 22.0158C34.2224 23.0857 33.6172 24.0329 32.8279 24.8573C32.0562 25.6816 31.1266 26.3218 30.0391 26.7779C28.9516 27.2339 27.7501 27.4619 26.4346 27.4619ZM26.4346 25.5413C27.8553 25.5413 29.0744 25.2344 30.0917 24.6205C31.1266 23.989 31.9159 23.1471 32.4596 22.0947C33.0209 21.0248 33.3015 19.8408 33.3015 18.5429C33.3015 17.2274 33.0209 16.0434 32.4596 14.991C31.9159 13.9386 31.1266 13.1055 30.0917 12.4916C29.0744 11.8601 27.8553 11.5444 26.4346 11.5444C25.0314 11.5444 23.8124 11.8601 22.7775 12.4916C21.7427 13.1055 20.9446 13.9386 20.3833 14.991C19.8396 16.0434 19.5677 17.2274 19.5677 18.5429C19.5677 19.8408 19.8396 21.0248 20.3833 22.0947C20.9446 23.1471 21.7427 23.989 22.7775 24.6205C23.8124 25.2344 25.0314 25.5413 26.4346 25.5413Z"/>
</mask>
<path d="M26.4346 27.4619C25.1191 27.4619 23.9176 27.2339 22.8301 26.7779C21.7427 26.3218 20.8043 25.6816 20.015 24.8573C19.2432 24.0329 18.6468 23.0857 18.2259 22.0158C17.8049 20.9283 17.5944 19.7707 17.5944 18.5429C17.5944 17.2975 17.8049 16.1399 18.2259 15.0699C18.6468 14 19.2432 13.0528 20.015 12.2285C20.8043 11.4041 21.7427 10.7639 22.8301 10.3078C23.9176 9.85179 25.1191 9.62377 26.4346 9.62377C27.7501 9.62377 28.9516 9.85179 30.0391 10.3078C31.1266 10.7639 32.0562 11.4041 32.8279 12.2285C33.6172 13.0528 34.2224 14 34.6433 15.0699C35.0643 16.1399 35.2748 17.2975 35.2748 18.5429C35.2748 19.7707 35.0643 20.9283 34.6433 22.0158C34.2224 23.0857 33.6172 24.0329 32.8279 24.8573C32.0562 25.6816 31.1266 26.3218 30.0391 26.7779C28.9516 27.2339 27.7501 27.4619 26.4346 27.4619ZM26.4346 25.5413C27.8553 25.5413 29.0744 25.2344 30.0917 24.6205C31.1266 23.989 31.9159 23.1471 32.4596 22.0947C33.0209 21.0248 33.3015 19.8408 33.3015 18.5429C33.3015 17.2274 33.0209 16.0434 32.4596 14.991C31.9159 13.9386 31.1266 13.1055 30.0917 12.4916C29.0744 11.8601 27.8553 11.5444 26.4346 11.5444C25.0314 11.5444 23.8124 11.8601 22.7775 12.4916C21.7427 13.1055 20.9446 13.9386 20.3833 14.991C19.8396 16.0434 19.5677 17.2274 19.5677 18.5429C19.5677 19.8408 19.8396 21.0248 20.3833 22.0947C20.9446 23.1471 21.7427 23.989 22.7775 24.6205C23.8124 25.2344 25.0314 25.5413 26.4346 25.5413Z" fill="white"/>
<path d="M22.8301 26.7779L22.7301 27.0164V27.0164L22.8301 26.7779ZM20.015 24.8573L19.8261 25.034L19.8281 25.0361L20.015 24.8573ZM18.2259 22.0158L17.9847 22.1092L17.9852 22.1105L18.2259 22.0158ZM18.2259 15.0699L17.9852 14.9752V14.9752L18.2259 15.0699ZM20.015 12.2285L19.8281 12.0496L19.8261 12.0517L20.015 12.2285ZM22.8301 10.3078L22.7301 10.0693V10.0693L22.8301 10.3078ZM30.0391 10.3078L30.1391 10.0693V10.0693L30.0391 10.3078ZM32.8279 12.2285L32.6391 12.4053L32.6411 12.4073L32.8279 12.2285ZM34.6433 22.0158L34.884 22.1105L34.8845 22.1092L34.6433 22.0158ZM32.8279 24.8573L32.6411 24.6784L32.6391 24.6805L32.8279 24.8573ZM30.0391 26.7779L30.1391 27.0164V27.0164L30.0391 26.7779ZM30.0917 24.6205L30.2253 24.8419L30.2264 24.8413L30.0917 24.6205ZM32.4596 22.0947L32.2305 21.9745L32.2298 21.976L32.4596 22.0947ZM32.4596 14.991L32.2298 15.1098L32.2314 15.1127L32.4596 14.991ZM30.0917 12.4916L29.9553 12.7114L29.9597 12.714L30.0917 12.4916ZM22.7775 12.4916L22.9095 12.714L22.9122 12.7124L22.7775 12.4916ZM20.3833 14.991L20.1551 14.8693L20.1535 14.8723L20.3833 14.991ZM20.3833 22.0947L20.1527 22.2119L20.1551 22.2164L20.3833 22.0947ZM22.7775 24.6205L22.6428 24.8413L22.6455 24.8429L22.7775 24.6205ZM26.4346 27.4619V27.2033C25.1495 27.2033 23.9825 26.9806 22.9302 26.5393L22.8301 26.7779L22.7301 27.0164C23.8527 27.4872 25.0887 27.7206 26.4346 27.7206V27.4619ZM22.8301 26.7779L22.9302 26.5393C21.8743 26.0966 20.9657 25.4763 20.2018 24.6784L20.015 24.8573L19.8281 25.0361C20.6428 25.887 21.611 26.5471 22.7301 27.0164L22.8301 26.7779ZM20.015 24.8573L20.2038 24.6805C19.4548 23.8804 18.8758 22.9612 18.4666 21.9211L18.2259 22.0158L17.9852 22.1105C18.4179 23.2102 19.0316 24.1854 19.8261 25.034L20.015 24.8573ZM18.2259 22.0158L18.4671 21.9224C18.0583 20.8663 17.8531 19.7404 17.8531 18.5429H17.5944H17.3358C17.3358 19.8009 17.5516 20.9903 17.9847 22.1092L18.2259 22.0158ZM17.5944 18.5429H17.8531C17.8531 17.3272 18.0585 16.202 18.4666 15.1646L18.2259 15.0699L17.9852 14.9752C17.5514 16.0778 17.3358 17.2678 17.3358 18.5429H17.5944ZM18.2259 15.0699L18.4666 15.1646C18.8758 14.1245 19.4548 13.2053 20.2038 12.4052L20.015 12.2285L19.8261 12.0517C19.0316 12.9003 18.4179 13.8755 17.9852 14.9752L18.2259 15.0699ZM20.015 12.2285L20.2018 12.4073C20.9657 11.6095 21.8743 10.9892 22.9302 10.5464L22.8301 10.3078L22.7301 10.0693C21.611 10.5386 20.6428 11.1987 19.8281 12.0496L20.015 12.2285ZM22.8301 10.3078L22.9302 10.5464C23.9825 10.1051 25.1495 9.88244 26.4346 9.88244V9.62377V9.3651C25.0887 9.3651 23.8527 9.59851 22.7301 10.0693L22.8301 10.3078ZM26.4346 9.62377V9.88244C27.7197 9.88244 28.8867 10.1051 29.939 10.5464L30.0391 10.3078L30.1391 10.0693C29.0165 9.59851 27.7805 9.3651 26.4346 9.3651V9.62377ZM30.0391 10.3078L29.939 10.5464C30.9944 10.989 31.8934 11.6087 32.6391 12.4052L32.8279 12.2285L33.0168 12.0517C32.219 11.1995 31.2587 10.5388 30.1391 10.0693L30.0391 10.3078ZM32.8279 12.2285L32.6411 12.4073C33.407 13.2073 33.9939 14.1258 34.4026 15.1646L34.6433 15.0699L34.884 14.9752C34.4508 13.8742 33.8275 12.8984 33.0148 12.0496L32.8279 12.2285ZM34.6433 15.0699L34.4026 15.1646C34.8108 16.202 35.0161 17.3272 35.0161 18.5429H35.2748H35.5334C35.5334 17.2678 35.3178 16.0778 34.884 14.9752L34.6433 15.0699ZM35.2748 18.5429H35.0161C35.0161 19.7404 34.8109 20.8663 34.4021 21.9224L34.6433 22.0158L34.8845 22.1092C35.3176 20.9903 35.5334 19.8009 35.5334 18.5429H35.2748ZM34.6433 22.0158L34.4026 21.9211C33.9939 22.96 33.407 23.8785 32.6411 24.6784L32.8279 24.8573L33.0148 25.0361C33.8275 24.1873 34.4508 23.2115 34.884 22.1105L34.6433 22.0158ZM32.8279 24.8573L32.6391 24.6805C31.8934 25.4771 30.9944 26.0968 29.939 26.5393L30.0391 26.7779L30.1391 27.0164C31.2587 26.5469 32.219 25.8862 33.0168 25.034L32.8279 24.8573ZM30.0391 26.7779L29.939 26.5393C28.8867 26.9806 27.7197 27.2033 26.4346 27.2033V27.4619V27.7206C27.7805 27.7206 29.0165 27.4872 30.1391 27.0164L30.0391 26.7779ZM26.4346 25.5413V25.8C27.8932 25.8 29.1604 25.4846 30.2253 24.8419L30.0917 24.6205L29.958 24.399C28.9883 24.9842 27.8175 25.2826 26.4346 25.2826V25.5413ZM30.0917 24.6205L30.2264 24.8413C31.3007 24.1858 32.1234 23.309 32.6894 22.2134L32.4596 22.0947L32.2298 21.976C31.7083 22.9853 30.9524 23.7923 29.957 24.3997L30.0917 24.6205ZM32.4596 22.0947L32.6887 22.2149C33.2708 21.1051 33.5602 19.8795 33.5602 18.5429H33.3015H33.0428C33.0428 19.8021 32.7709 20.9444 32.2305 21.9745L32.4596 22.0947ZM33.3015 18.5429H33.5602C33.5602 17.1894 33.2711 15.9629 32.6878 14.8693L32.4596 14.991L32.2314 15.1127C32.7707 16.1239 33.0428 17.2654 33.0428 18.5429H33.3015ZM32.4596 14.991L32.6894 14.8723C32.123 13.7761 31.2995 12.9073 30.2237 12.2691L30.0917 12.4916L29.9597 12.714C30.9536 13.3036 31.7087 14.1011 32.2298 15.1097L32.4596 14.991ZM30.0917 12.4916L30.2281 12.2718C29.1627 11.6105 27.8945 11.2857 26.4346 11.2857V11.5444V11.8031C27.8162 11.8031 28.986 12.1097 29.9553 12.7113L30.0917 12.4916ZM26.4346 11.5444V11.2857C24.9915 11.2857 23.7243 11.6109 22.6428 12.2708L22.7775 12.4916L22.9122 12.7124C23.9005 12.1094 25.0713 11.8031 26.4346 11.8031V11.5444ZM22.7775 12.4916L22.6455 12.2691C21.5704 12.9069 20.7388 13.7747 20.1551 14.8693L20.3833 14.991L20.6115 15.1127C21.1503 14.1025 21.9149 13.304 22.9095 12.714L22.7775 12.4916ZM20.3833 14.991L20.1535 14.8723C19.5888 15.9653 19.309 17.1907 19.309 18.5429H19.5677H19.8264C19.8264 17.264 20.0904 16.1215 20.6131 15.1097L20.3833 14.991ZM19.5677 18.5429H19.309C19.309 19.8782 19.589 21.1027 20.1527 22.2119L20.3833 22.0947L20.6139 21.9775C20.0901 20.9468 19.8264 19.8035 19.8264 18.5429H19.5677ZM20.3833 22.0947L20.1551 22.2164C20.7385 23.3103 21.5691 24.1862 22.6428 24.8413L22.7775 24.6205L22.9122 24.3997C21.9162 23.7919 21.1507 22.9839 20.6115 21.973L20.3833 22.0947ZM22.7775 24.6205L22.6455 24.8429C23.7266 25.4842 24.9928 25.8 26.4346 25.8V25.5413V25.2826C25.07 25.2826 23.8982 24.9845 22.9095 24.398L22.7775 24.6205Z" fill="white" mask="url(#path-5-outside-3_54_488)"/>
</g>
<circle id="Ellipse 65693521" cx="26.453" cy="17.9515" r="7.63069" fill="white"/>
<path id="Ellipse 65693522" d="M23.6909 21.059C23.5753 21.3209 23.4093 21.5574 23.2024 21.7552C22.9954 21.9529 22.7515 22.108 22.4847 22.2115C22.2178 22.315 21.9331 22.3649 21.647 22.3584C21.3608 22.3519 21.0787 22.289 20.8168 22.1735C20.5549 22.058 20.3183 21.892 20.1206 21.685C19.9229 21.4781 19.7678 21.2342 19.6643 20.9673C19.5608 20.7004 19.5109 20.4158 19.5174 20.1296C19.5239 19.8434 19.5867 19.5614 19.7023 19.2995L21.6966 20.1792L23.6909 21.059Z" fill="#2A5EEE"/>
<path id="Ellipse 65693523" d="M28.2797 18.5398C28.4499 18.77 28.5731 19.0314 28.6422 19.3092C28.7114 19.587 28.7251 19.8756 28.6827 20.1587C28.6403 20.4418 28.5425 20.7138 28.395 20.9591C28.2475 21.2044 28.0531 21.4182 27.8229 21.5884C27.5928 21.7586 27.3314 21.8817 27.0536 21.9509C26.7758 22.02 26.4871 22.0338 26.2041 21.9914C25.921 21.9489 25.649 21.8512 25.4037 21.7037C25.1584 21.5561 24.9446 21.3617 24.7744 21.1316L26.5271 19.8357L28.2797 18.5398Z" fill="#2A5EEE"/>
<path id="Vector 392349263" d="M24.5117 24.1599L26.7104 22.4785" stroke="#2A5EEE" stroke-width="1.03467"/>
</g>
</g>
</svg>
