<svg width="435" height="164" viewBox="0 0 435 164" fill="none" xmlns="http://www.w3.org/2000/svg">
<rect x="276" width="12" height="115.246" fill="black"/>
<rect x="352" width="12" height="115.246" fill="black"/>
<rect width="10.0945" height="40" transform="matrix(0 1 1 0 175 0)" fill="black"/>
<rect x="175" width="12" height="115.246" fill="black"/>
<rect x="3" width="12" height="115.246" fill="black"/>
<rect x="108" width="12" height="115.246" fill="black"/>
<rect x="154" y="55.5195" width="12" height="59.726" fill="black"/>
<path d="M21.959 32.0927V0C52.658 1.42634 60.184 21.9895 60.1096 32.0927H21.959Z" fill="black"/>
<path d="M127.383 32.0927V0C158.082 1.42634 165.608 21.9895 165.533 32.0927H127.383Z" fill="black"/>
<path d="M347 14.3006V0C333.321 0.635582 329.967 9.79855 330 14.3006H347Z" fill="black"/>
<path d="M369 100.946V115.246C382.679 114.611 386.033 105.448 386 100.946H369Z" fill="black"/>
<path d="M369 14.3008H386C385.244 2.79357 374.352 -0.0274773 369 0.000398636V14.3008Z" fill="black"/>
<path d="M347 100.945H330C330.756 112.453 341.648 115.274 347 115.246V100.945Z" fill="black"/>
<ellipse cx="59" cy="78.5" rx="37" ry="36.5" fill="black"/>
<path d="M166 57.2035C166 54.3313 165.25 51.4872 163.793 48.8337C162.335 46.1801 160.199 43.769 157.506 41.738C154.813 39.7071 151.616 38.096 148.098 36.9969C144.579 35.8978 140.808 35.332 137 35.332C133.192 35.332 129.421 35.8978 125.902 36.9969C122.384 38.096 119.187 39.7071 116.494 41.738C113.801 43.769 111.665 46.1801 110.207 48.8337C108.75 51.4872 108 54.3313 108 57.2035L137 57.2035H166Z" fill="black"/>
<path d="M327.345 115.14C327.345 113.057 326.857 110.995 325.91 109.071C324.963 107.147 323.574 105.399 321.823 103.926C320.073 102.454 317.995 101.285 315.707 100.488C313.42 99.6914 310.969 99.2812 308.493 99.2813C306.017 99.2813 303.566 99.6914 301.278 100.488C298.991 101.285 296.913 102.454 295.162 103.926C293.412 105.399 292.023 107.147 291.076 109.071C290.128 110.995 289.641 113.057 289.641 115.14L308.493 115.14H327.345Z" fill="black"/>
<path d="M215.706 45.9797C215.706 44.4517 215.348 42.9386 214.653 41.5268C213.958 40.1151 212.939 38.8323 211.654 37.7518C210.37 36.6713 208.845 35.8142 207.167 35.2295C205.489 34.6447 203.69 34.3437 201.873 34.3438C200.057 34.3438 198.258 34.6447 196.58 35.2295C194.902 35.8142 193.377 36.6713 192.092 37.7518C190.808 38.8323 189.789 40.1151 189.094 41.5268C188.399 42.9386 188.041 44.4517 188.041 45.9797L201.873 45.9797H215.706Z" fill="black"/>
<ellipse cx="245.269" cy="57.8082" rx="22.9796" ry="57.6168" fill="black"/>
<ellipse cx="411.706" cy="57.9957" rx="22.9796" ry="57.6168" fill="black"/>
<path d="M2.66068 131.495H11.2198C15.0055 131.495 17.8695 132.549 19.8447 134.689C21.6882 136.664 22.6099 139.528 22.6099 143.248C22.6099 146.935 21.6553 149.799 19.7788 151.84C17.8037 153.947 14.9397 155 11.1539 155H2.66068V131.495ZM6.24891 134.557V151.938H10.4955C13.4583 151.938 15.6639 151.214 17.0465 149.799C18.3962 148.383 19.0875 146.21 19.0875 143.248C19.0875 140.219 18.3962 138.046 17.0794 136.664C15.6968 135.248 13.5241 134.557 10.5614 134.557H6.24891ZM26.3232 131.495H29.8785V155H26.3232V131.495ZM44.7236 131.035C47.7193 131.035 50.0895 131.693 51.8343 133.076C53.5132 134.392 54.5666 136.335 54.9945 138.968H51.3734C51.0442 137.388 50.32 136.203 49.2007 135.413C48.0814 134.59 46.5671 134.195 44.7236 134.195C42.4522 134.195 40.6416 134.952 39.2919 136.532C37.8435 138.178 37.1521 140.45 37.1521 143.346C37.1521 146.178 37.7776 148.35 39.0944 149.865C40.477 151.511 42.6497 152.334 45.5795 152.334C46.7317 152.334 47.8181 152.169 48.8386 151.906C49.8262 151.642 50.6821 151.247 51.4721 150.753V145.651H44.987V142.589H55.0604V152.465C53.8424 153.42 52.4268 154.144 50.8138 154.671C49.1019 155.198 47.2255 155.461 45.1845 155.461C41.4317 155.461 38.5348 154.276 36.4608 151.906C34.5186 149.7 33.5639 146.836 33.5639 143.346C33.5639 139.824 34.5186 136.927 36.4608 134.656C38.5018 132.22 41.2671 131.035 44.7236 131.035ZM59.4356 131.495H62.9909V155H59.4356V131.495ZM65.8534 131.495H85.1113V134.557H77.2765V155H73.7211V134.557H65.8534V131.495ZM94.6978 131.495H98.7799L107.833 155H103.981L101.776 148.943H91.6692L89.4636 155H85.645L94.6978 131.495ZM92.7556 145.98H100.689L96.8047 135.347H96.673L92.7556 145.98ZM110.131 131.495H113.687V151.938H126.624V155H110.131V131.495ZM150.749 131.035C153.481 131.035 155.752 131.726 157.53 133.174C159.242 134.557 160.295 136.466 160.657 138.836H157.168C156.773 137.256 156.016 136.071 154.896 135.314C153.777 134.557 152.394 134.195 150.683 134.195C148.148 134.195 146.239 135.051 144.955 136.795C143.737 138.376 143.144 140.548 143.144 143.281C143.144 146.112 143.737 148.284 144.922 149.832C146.173 151.478 148.115 152.301 150.749 152.301C152.46 152.301 153.909 151.873 155.028 151.017C156.213 150.095 157.036 148.712 157.497 146.869H160.987C160.46 149.601 159.242 151.741 157.3 153.288C155.489 154.737 153.316 155.461 150.781 155.461C146.93 155.461 144.033 154.21 142.091 151.774C140.379 149.667 139.556 146.836 139.556 143.281C139.556 139.791 140.412 136.96 142.189 134.754C144.165 132.253 146.996 131.035 150.749 131.035ZM164.622 131.495H175.025C177.395 131.495 179.304 132.022 180.687 133.108C182.136 134.294 182.86 135.972 182.86 138.211C182.86 139.462 182.531 140.548 181.872 141.503C181.115 142.556 180.095 143.248 178.811 143.577V143.643C180.917 144.104 182.07 145.486 182.333 147.791L182.728 151.543C182.86 152.992 183.321 154.144 184.111 155H180.226C179.667 154.276 179.337 153.222 179.206 151.906L178.909 148.976C178.778 147.659 178.35 146.737 177.658 146.145C176.934 145.552 175.914 145.289 174.564 145.289H168.211V155H164.622V131.495ZM168.211 134.557V142.227H174.564C176.144 142.227 177.329 141.865 178.119 141.207C178.876 140.548 179.272 139.594 179.272 138.343C179.272 137.026 178.876 136.071 178.152 135.479C177.362 134.853 176.177 134.557 174.531 134.557H168.211ZM187.415 131.495H204.303V134.557H191.003V141.404H203.513V144.466H191.003V151.938H204.863V155H187.415V131.495ZM215.253 131.495H219.335L228.388 155H224.536L222.331 148.943H212.224L210.019 155H206.2L215.253 131.495ZM213.311 145.98H221.244L217.36 135.347H217.228L213.311 145.98ZM228.876 131.495H248.134V134.557H240.299V155H236.744V134.557H228.876V131.495ZM251.038 131.495H254.593V155H251.038V131.495ZM257.126 131.495H261.011L267.693 150.984H267.792L274.442 131.495H278.326L269.899 155H265.554L257.126 131.495ZM280.805 131.495H297.693V134.557H284.393V141.404H296.903V144.466H284.393V151.938H298.253V155H280.805V131.495ZM310.717 131.495H314.766L319.342 149.799H319.474L324.28 131.495H328.033L332.839 149.799H332.971L337.546 131.495H341.596L334.814 155H330.995L326.222 136.861H326.09L321.317 155H317.465L310.717 131.495ZM354.475 131.035C358.03 131.035 360.861 132.187 362.935 134.524C364.911 136.73 365.898 139.659 365.898 143.281C365.898 146.869 364.911 149.766 362.935 152.004C360.861 154.309 358.03 155.461 354.475 155.461C350.887 155.461 348.056 154.276 346.015 151.971C344.04 149.733 343.085 146.836 343.085 143.281C343.085 139.692 344.04 136.795 346.015 134.557C348.056 132.187 350.887 131.035 354.475 131.035ZM354.475 134.195C351.973 134.195 350.031 135.018 348.648 136.73C347.332 138.343 346.673 140.515 346.673 143.281C346.673 146.013 347.332 148.186 348.648 149.799C350.031 151.445 351.973 152.301 354.475 152.301C356.977 152.301 358.919 151.478 360.269 149.865C361.586 148.284 362.277 146.079 362.277 143.281C362.277 140.45 361.586 138.244 360.269 136.631C358.919 134.985 356.977 134.195 354.475 134.195ZM369.534 131.495H379.936C382.306 131.495 384.216 132.022 385.598 133.108C387.047 134.294 387.771 135.972 387.771 138.211C387.771 139.462 387.442 140.548 386.784 141.503C386.026 142.556 385.006 143.248 383.722 143.577V143.643C385.829 144.104 386.981 145.486 387.244 147.791L387.639 151.543C387.771 152.992 388.232 154.144 389.022 155H385.138C384.578 154.276 384.249 153.222 384.117 151.906L383.821 148.976C383.689 147.659 383.261 146.737 382.57 146.145C381.846 145.552 380.825 145.289 379.475 145.289H373.122V155H369.534V131.495ZM373.122 134.557V142.227H379.475C381.056 142.227 382.241 141.865 383.031 141.207C383.788 140.548 384.183 139.594 384.183 138.343C384.183 137.026 383.788 136.071 383.064 135.479C382.274 134.853 381.088 134.557 379.442 134.557H373.122ZM407.272 131.495H411.815L401.412 141.602L413.329 155H408.523L398.976 143.939L395.915 146.869V155H392.327V131.495H395.915V142.853L407.272 131.495ZM423.864 131.035C426.596 131.035 428.736 131.594 430.283 132.779C431.929 133.997 432.851 135.874 433.081 138.441H429.526C429.197 136.927 428.604 135.808 427.683 135.15C426.761 134.458 425.444 134.129 423.666 134.129C422.119 134.129 420.934 134.359 420.111 134.82C419.091 135.347 418.597 136.203 418.597 137.388C418.597 138.441 419.156 139.264 420.341 139.89C420.868 140.186 422.218 140.68 424.423 141.338C427.584 142.326 429.658 143.083 430.579 143.643C432.588 144.861 433.608 146.54 433.608 148.712C433.608 150.819 432.785 152.465 431.139 153.683C429.493 154.868 427.189 155.461 424.226 155.461C421.362 155.461 419.123 154.868 417.51 153.749C415.568 152.366 414.515 150.194 414.317 147.231H417.872C418.136 149.074 418.794 150.424 419.848 151.214C420.802 151.938 422.251 152.301 424.226 152.301C426.004 152.301 427.419 151.971 428.473 151.379C429.526 150.786 430.053 149.963 430.053 148.91C430.053 147.593 429.296 146.573 427.814 145.815C427.287 145.552 425.74 145.025 423.14 144.235C420.243 143.314 418.465 142.688 417.741 142.293C415.93 141.207 415.041 139.627 415.041 137.586C415.041 135.512 415.897 133.899 417.642 132.713C419.288 131.594 421.362 131.035 423.864 131.035Z" fill="black"/>
</svg>
